<svg version="1.1" id="Layer_1" xmlns="http://www.w3.org/2000/svg" xmlns:xlink="http://www.w3.org/1999/xlink" x="0px" y="0px"
	 width="100%" viewBox="0 0 851 315" enable-background="new 0 0 851 315" xml:space="preserve">
<path fill="#000000" opacity="1.000000" stroke="none" 
	d="
M1.000000,201.000000 
	C1.000000,134.345566 1.000000,67.691124 1.000000,1.018340 
	C284.602417,1.018340 568.204834,1.018340 851.903625,1.018340 
	C851.903625,105.916412 851.903625,210.832947 851.903625,315.874756 
	C568.333374,315.874756 284.666687,315.874756 1.000000,315.874756 
	C1.000000,278.580383 1.000000,241.254074 1.468656,203.463959 
	C10.584264,203.000153 19.231215,203.000153 27.878166,203.000153 
	C27.928505,202.515839 27.978844,202.031509 28.029181,201.547195 
	C24.655443,200.583984 21.281706,199.620758 17.922207,198.661606 
	C19.575203,190.980148 21.697191,183.948502 22.436895,176.774307 
	C23.014278,171.174423 25.674412,170.855270 30.175398,170.905930 
	C43.657169,171.057678 61.914299,160.676239 65.468712,145.241089 
	C67.693611,135.579376 64.040756,127.060158 54.454224,123.950310 
	C41.542110,119.761650 28.388144,122.483284 15.325171,123.103546 
	C14.871743,123.125069 14.465661,124.143700 14.037510,124.697594 
	C14.596663,125.129295 15.125103,125.874977 15.720783,125.933243 
	C17.440380,126.101456 19.187073,125.992699 21.158939,125.992699 
	C19.680820,133.711639 18.274755,140.686111 17.019087,147.687531 
	C14.330014,162.681427 11.070393,177.616943 9.385105,192.725906 
	C8.681805,199.031143 5.887004,200.364044 1.000000,201.000000 
M670.493286,180.008514 
	C667.923706,185.531601 665.354187,191.054688 662.784607,196.577774 
	C662.000000,189.572067 661.903687,182.909195 662.019287,176.250031 
	C662.292786,160.502441 662.731323,144.757477 662.944519,129.009293 
	C662.985718,125.966988 664.042236,124.899620 667.045898,124.908890 
	C668.726562,124.914078 670.410095,124.000244 672.092407,123.500504 
	C672.000610,123.130661 671.908813,122.760811 671.817078,122.390961 
	C663.265625,122.390961 654.714172,122.390961 646.162781,122.390961 
	C645.946167,122.728622 645.729553,123.066284 645.512939,123.403946 
	C646.288696,123.918915 647.049194,124.846954 647.842896,124.876228 
	C651.014282,124.993233 650.983582,127.045876 651.020691,129.348602 
	C651.317017,147.761917 651.603760,166.175873 652.035889,184.586273 
	C652.177734,190.629074 652.739258,196.662018 653.106140,202.655731 
	C664.848450,203.047729 662.695435,205.159912 667.985901,194.950958 
	C671.189392,188.769272 674.190491,182.483047 677.316040,176.260605 
	C682.347351,166.244156 687.406372,156.241638 692.453613,146.233231 
	C692.743835,146.300049 693.034058,146.366867 693.324280,146.433685 
	C694.889099,165.254944 696.453857,184.076218 698.017700,202.885422 
	C702.001465,202.885422 705.311890,202.885422 709.187683,202.885422 
	C719.261475,180.655685 729.314148,158.273773 739.575195,135.987778 
	C741.772949,131.214355 743.075256,125.428322 749.465637,123.927818 
	C749.713562,123.869598 749.735168,122.847420 749.825256,122.441132 
	C742.428894,122.441132 735.272888,122.441132 727.148376,122.441132 
	C728.581360,123.730965 729.311218,124.919884 729.934998,124.866608 
	C735.773071,124.368019 734.971008,127.276306 733.496887,131.070389 
	C727.431946,146.679611 721.564819,162.365723 715.494690,177.972900 
	C713.069641,184.208008 710.307617,190.312042 707.443665,197.079041 
	C706.920105,189.597214 706.292236,183.027832 706.036438,176.444016 
	C705.573547,164.529953 705.438782,152.602936 704.950073,140.690216 
	C704.736511,135.483765 703.988281,130.299240 703.470886,124.981995 
	C700.052856,125.526176 696.100159,123.360542 693.968445,128.180099 
	C686.399048,145.292801 678.638367,162.320877 670.493286,180.008514 
M400.995270,198.404968 
	C404.275360,182.403000 410.820557,167.983704 421.736267,155.692764 
	C422.543213,154.784134 423.444580,153.948746 424.368286,153.156540 
	C426.404572,151.410126 428.480591,148.282364 431.343079,150.998703 
	C433.176270,152.738281 434.963501,155.810333 434.797607,158.144806 
	C434.163422,167.068695 432.898834,175.961761 431.537048,184.815201 
	C430.567474,191.118423 429.065155,197.339691 427.787750,203.661026 
	C436.010803,204.316086 436.592438,204.058075 438.323212,197.269333 
	C441.161499,186.136780 444.323822,175.167603 450.865540,165.498688 
	C454.673492,159.870377 457.819244,153.774704 464.574127,150.748474 
	C467.966431,149.228729 469.606018,150.811844 470.614044,153.306976 
	C471.505676,155.514008 472.154816,158.122086 471.891876,160.437393 
	C470.994171,168.342407 469.770020,176.217316 468.433136,184.063293 
	C467.328583,190.545975 465.888092,196.971451 464.512787,203.840393 
	C471.257843,203.908432 477.427521,205.203949 481.700134,198.903976 
	C479.583313,199.252899 477.466461,199.601822 474.800323,200.041275 
	C475.125793,197.944138 475.279999,196.354401 475.626923,194.807892 
	C478.907928,180.180252 483.045593,165.694687 482.040710,150.427338 
	C481.677185,144.904190 479.018188,142.134842 473.568756,141.974243 
	C464.986420,141.721344 459.693756,147.070770 455.065430,153.078888 
	C451.068420,158.267441 447.737610,163.969223 444.319031,169.131927 
	C444.849792,164.380814 445.922363,159.232239 445.896240,154.089249 
	C445.841431,143.291977 439.694122,139.098328 430.157745,143.085342 
	C427.982086,143.994965 425.821655,145.525223 424.302795,147.318985 
	C418.279968,154.431854 412.514404,161.762512 407.075745,168.490112 
	C407.902100,165.047379 409.057007,160.708694 409.965759,156.319061 
	C410.908142,151.767029 411.612152,147.165619 412.424194,142.564438 
	C401.808899,141.097595 393.893250,143.362396 393.386292,147.967972 
	C395.534241,147.625061 397.615173,147.292847 400.572601,146.820724 
	C397.238831,166.324463 394.054962,184.951157 390.866272,203.606155 
	C397.957062,204.284851 399.087189,203.760666 400.995270,198.404968 
M291.057434,183.729172 
	C290.003479,190.379333 288.949554,197.029495 287.888733,203.723038 
	C296.239044,204.270981 296.284149,204.187454 298.042511,197.106461 
	C301.877014,181.664612 308.022125,167.314529 318.970459,155.509247 
	C321.390381,152.899902 323.900696,148.020889 328.594482,151.193573 
	C330.497223,152.479706 332.036743,156.080872 331.806122,158.439377 
	C330.778473,168.950897 329.124817,179.405167 327.542603,189.856705 
	C326.835785,194.525772 325.764496,199.139648 324.837738,203.885406 
	C333.348572,204.100815 334.485016,203.545547 335.904541,196.146271 
	C338.031891,185.057510 341.877716,174.707031 348.009064,165.264236 
	C351.608734,159.720459 354.778259,153.824219 361.389404,150.821777 
	C364.780975,149.281464 366.464539,150.761734 367.492188,153.141296 
	C368.493011,155.458817 369.148651,158.256210 368.883881,160.728088 
	C368.053680,168.477417 366.855865,176.196259 365.536255,183.881546 
	C364.404877,190.470764 362.910065,196.997574 361.488556,203.981644 
	C368.368164,203.832458 374.494690,205.176468 378.745026,198.939758 
	C376.648285,199.276154 374.551575,199.612549 371.564362,200.091812 
	C372.320892,196.654785 372.964417,193.715057 373.615234,190.776932 
	C376.580933,177.388763 380.032043,164.079071 379.035431,150.144638 
	C378.665771,144.976532 375.886383,142.207870 370.787567,141.960907 
	C362.128052,141.541504 356.826904,147.006378 352.114594,152.883148 
	C348.021545,157.987579 344.802979,163.793213 341.352570,169.053207 
	C341.885681,164.118622 342.971405,158.956024 342.888733,153.812195 
	C342.719177,143.259048 336.792847,139.266922 327.381958,143.083466 
	C325.057831,144.026031 322.722656,145.614456 321.108521,147.514282 
	C315.165802,154.508804 309.523804,161.758835 304.341095,168.201172 
	C305.960724,160.312973 307.789398,151.406738 309.643158,142.378189 
	C297.350677,141.384689 290.417786,143.550262 290.633118,147.931717 
	C292.618378,147.589828 294.597351,147.249008 297.472687,146.753845 
	C295.407532,159.334991 293.466980,171.157028 291.057434,183.729172 
M816.504272,154.997772 
	C813.752502,158.529816 811.000671,162.061859 807.315430,166.792023 
	C811.200256,148.419281 814.791321,131.435959 818.403076,114.354393 
	C806.188721,113.384377 798.708069,115.145119 798.502014,119.098602 
	C800.955811,119.098602 803.402649,119.098602 805.767822,119.098602 
	C800.666870,147.520889 795.626526,175.605133 790.586182,203.689377 
	C791.311584,204.029175 792.036987,204.368973 792.762329,204.708771 
	C795.086609,201.598938 797.410828,198.489105 799.713928,195.407516 
	C806.982483,207.910736 823.955444,205.808472 831.778687,197.754898 
	C843.063599,186.137833 848.914856,172.373688 849.051208,156.118500 
	C849.097290,150.621307 848.402832,145.205246 843.051697,142.866226 
	C838.012573,140.663651 832.370667,141.174957 827.776672,144.828903 
	C824.012268,147.823013 820.588684,151.245728 816.504272,154.997772 
M224.999954,182.530457 
	C225.626205,186.171143 225.642548,190.056992 226.989471,193.408020 
	C231.612167,204.908936 241.106476,205.815430 253.122635,203.140884 
	C266.573822,200.146942 274.029755,189.737000 277.743591,177.321350 
	C279.796265,170.458939 280.930450,162.440430 279.457031,155.593292 
	C276.636810,142.487335 265.643738,139.907562 252.831879,142.771225 
	C236.192215,146.490479 225.759766,165.828598 224.999954,182.530457 
M184.476089,145.015778 
	C189.744492,135.208160 196.818314,127.498558 208.015213,124.435593 
	C212.859680,123.110367 217.153580,125.115692 217.970490,129.382217 
	C218.702057,133.203049 219.257690,137.058899 220.055618,140.864761 
	C220.245392,141.769852 221.092407,142.537155 221.637115,143.367828 
	C223.520782,137.842194 224.130905,132.705429 225.036026,127.621201 
	C225.875961,122.903046 223.095825,121.446045 219.338501,121.045090 
	C205.261673,119.542923 192.517960,122.985016 182.505676,133.161667 
	C168.342087,147.557800 161.557251,165.017960 164.123398,185.338699 
	C165.160782,193.553497 172.318497,202.127075 180.558868,202.869965 
	C187.810333,203.523712 195.278015,203.755600 202.441299,202.723602 
	C207.303894,202.023056 211.805435,198.816360 216.468445,196.730438 
	C216.214951,196.106216 215.961456,195.482010 215.707962,194.857788 
	C211.059525,195.922958 206.342682,196.755142 201.775208,198.096100 
	C186.815231,202.488190 176.308243,192.241196 175.937195,178.395096 
	C175.622742,166.660339 178.779327,155.927505 184.476089,145.015778 
M522.916809,202.594315 
	C526.469482,200.749252 530.084106,199.009918 533.533630,196.988800 
	C534.457825,196.447327 534.878418,195.046371 535.530212,194.039993 
	C534.420288,194.135269 533.232056,194.007767 532.214233,194.365265 
	C528.297058,195.741058 524.511475,197.539627 520.534302,198.686035 
	C513.599548,200.684982 506.700012,197.275528 505.167267,190.407806 
	C504.010345,185.224091 504.430298,179.688477 504.161987,174.568146 
	C510.447388,173.954163 515.383606,173.772308 520.205139,172.932556 
	C527.980408,171.578400 535.215210,168.961945 539.690308,161.747925 
	C544.188171,154.497162 540.224243,143.056229 532.659912,142.067032 
	C523.347229,140.849197 514.694885,142.636902 507.863922,149.655228 
	C498.371887,159.407593 493.010223,171.264221 492.198730,184.728287 
	C491.833527,190.787994 492.943115,197.539764 498.877625,201.192413 
	C506.150269,205.668701 514.226257,204.571960 522.916809,202.594315 
M65.044617,171.777176 
	C64.363182,177.425049 63.288563,183.059921 63.101067,188.724152 
	C62.873032,195.612869 69.642731,203.278809 75.879234,203.995010 
	C86.190132,205.179108 95.741486,203.051071 104.328148,197.172867 
	C105.331223,196.486176 105.712311,194.890930 106.864822,192.869705 
	C101.117134,195.036514 96.654785,196.892944 92.078690,198.405151 
	C84.214287,201.004028 76.382515,197.025818 75.149445,189.305756 
	C74.377449,184.472412 75.005768,179.415390 75.005768,173.999939 
	C78.269623,173.999939 81.261803,174.280197 84.184250,173.947662 
	C93.121643,172.930695 101.933266,171.514313 108.376381,164.165527 
	C112.109200,159.907990 113.115311,153.180099 110.702515,148.198456 
	C107.245575,141.061005 99.172905,140.458603 91.110306,142.657669 
	C76.903694,146.532562 70.193336,158.129929 65.044617,171.777176 
M767.875977,172.638672 
	C768.469116,172.421722 769.053223,172.174973 769.656799,171.992371 
	C777.213745,169.705719 783.754150,166.297958 786.493896,158.071503 
	C788.057739,153.376022 786.331360,147.233841 781.985901,144.495697 
	C774.544006,139.806503 766.631531,140.765732 759.815125,144.965866 
	C744.666809,154.299973 736.027588,172.654800 738.055115,191.392517 
	C738.676636,197.136627 745.563354,203.460678 751.176575,204.005173 
	C760.738770,204.932739 769.755432,203.376251 777.835266,197.953934 
	C779.291382,196.976700 780.285583,195.311096 781.493042,193.963287 
	C781.168457,193.645615 780.843811,193.327957 780.519226,193.010284 
	C771.421021,196.417694 762.150330,204.191940 752.815063,194.995316 
	C746.959595,189.226883 748.408142,181.354309 750.390198,174.444061 
	C756.300720,173.920166 761.690796,173.442398 767.875977,172.638672 
M141.576355,142.975876 
	C143.065323,137.534805 144.554291,132.093735 146.256073,125.874939 
	C144.506378,126.171989 143.135178,126.295914 141.824554,126.646347 
	C136.515076,128.066040 134.509888,132.447495 133.556763,137.079620 
	C132.447067,142.472717 130.045242,144.907486 124.283363,144.173523 
	C122.610924,143.960480 120.673332,145.828873 118.857285,146.743103 
	C119.076797,147.469849 119.296310,148.196594 119.515816,148.923340 
	C122.987000,148.718781 126.458176,148.514206 129.158432,148.355072 
	C126.721519,161.122208 124.255196,173.625916 121.964584,186.161713 
	C119.680878,198.659760 126.111313,205.668457 135.929810,204.041763 
	C137.713196,203.746307 139.624710,204.235352 141.412521,203.953217 
	C146.248795,203.190002 150.655533,201.481064 153.826172,197.402328 
	C150.165558,197.613434 146.748886,198.398621 143.359131,199.286575 
	C137.402756,200.846848 132.953018,197.625244 133.051117,191.443512 
	C133.131805,186.358597 133.214111,181.200333 134.099152,176.217300 
	C135.781860,166.743103 138.039047,157.370926 139.887024,148.752167 
	C148.023956,146.359451 155.901352,148.351334 162.993561,145.656815 
	C162.927246,145.042877 162.860947,144.428955 162.794632,143.815018 
	C155.676453,143.815018 148.558289,143.815018 141.576355,142.975876 
M550.631958,147.992981 
	C552.292908,147.670670 553.953796,147.348358 556.669189,146.821426 
	C553.407776,166.187515 550.268127,184.830521 547.128845,203.471558 
	C554.315063,204.668991 555.266113,203.972504 557.146729,197.615219 
	C560.845703,185.111023 564.654724,172.636902 571.839172,161.535797 
	C575.026855,156.610245 577.847717,151.239578 584.310059,150.020767 
	C586.593323,149.590134 589.308960,150.634155 591.310913,149.786133 
	C592.938538,149.096695 594.062256,146.690140 594.790527,144.805832 
	C594.956116,144.377426 592.657043,142.287018 591.340698,142.113663 
	C584.344177,141.192215 578.982483,144.299347 575.067322,149.877655 
	C571.289856,155.259781 567.792419,160.838455 563.925293,166.705002 
	C565.511169,158.391296 567.041626,150.368149 568.825317,141.017609 
	C562.050781,142.225281 556.925354,142.962219 551.908386,144.155396 
	C550.625061,144.460617 547.299561,144.929398 550.631958,147.992981 
M612.466370,153.022446 
	C614.453430,151.317276 616.304443,149.412888 618.453735,147.945145 
	C624.367798,143.906326 628.231323,145.036072 631.064636,151.479752 
	C631.693726,152.910446 632.092468,154.442413 632.600403,155.936951 
	C636.959534,156.472900 636.758240,153.501602 637.040222,150.643631 
	C637.486755,146.117294 636.335083,142.539871 631.323120,142.083069 
	C623.381042,141.359192 615.848145,142.449936 609.025818,147.355621 
	C597.349976,155.751312 591.116699,167.337341 589.147583,181.155899 
	C588.059326,188.793259 588.551636,196.656708 596.141479,201.591522 
	C604.035156,206.723907 624.850769,203.523453 630.831970,196.303192 
	C631.182495,195.880051 630.766357,194.821777 630.708313,194.076782 
	C626.222351,195.670868 622.069824,197.385757 617.778931,198.619293 
	C609.878601,200.890503 601.537170,196.129593 601.052124,188.978241 
	C600.160095,175.825699 603.792542,163.959763 612.466370,153.022446 
z"/>
<path fill="#F5DF7D" opacity="1.000000" stroke="none" 
	d="
M1.000000,201.333328 
	C5.887004,200.364044 8.681805,199.031143 9.385105,192.725906 
	C11.070393,177.616943 14.330014,162.681427 17.019087,147.687531 
	C18.274755,140.686111 19.680820,133.711639 21.158939,125.992699 
	C19.187073,125.992699 17.440380,126.101456 15.720783,125.933243 
	C15.125103,125.874977 14.596663,125.129295 14.037510,124.697594 
	C14.465661,124.143700 14.871743,123.125069 15.325171,123.103546 
	C28.388144,122.483284 41.542110,119.761650 54.454224,123.950310 
	C64.040756,127.060158 67.693611,135.579376 65.468712,145.241089 
	C61.914299,160.676239 43.657169,171.057678 30.175398,170.905930 
	C25.674412,170.855270 23.014278,171.174423 22.436895,176.774307 
	C21.697191,183.948502 19.575203,190.980148 17.922207,198.661606 
	C21.281706,199.620758 24.655443,200.583984 28.029181,201.547195 
	C27.978844,202.031509 27.928505,202.515839 27.878166,203.000153 
	C19.231215,203.000153 10.584264,203.000153 1.468656,203.000076 
	C1.000000,202.555557 1.000000,202.111099 1.000000,201.333328 
M48.549725,155.966324 
	C50.195938,151.992493 52.166924,148.117981 53.418831,144.023590 
	C55.814499,136.188477 51.651176,128.352814 43.955132,125.464020 
	C37.479282,123.033241 33.539478,125.092575 31.975988,131.683487 
	C30.708916,137.024841 29.237906,142.323120 28.144274,147.698898 
	C26.869188,153.966614 25.906113,160.297806 24.818470,166.539337 
	C34.953075,169.003189 44.132786,162.817581 48.549725,155.966324 
z"/>
<path fill="#F5DF7D" opacity="1.000000" stroke="none" 
	d="
M670.721680,179.694763 
	C678.638367,162.320877 686.399048,145.292801 693.968445,128.180099 
	C696.100159,123.360542 700.052856,125.526176 703.470886,124.981995 
	C703.988281,130.299240 704.736511,135.483765 704.950073,140.690216 
	C705.438782,152.602936 705.573547,164.529953 706.036438,176.444016 
	C706.292236,183.027832 706.920105,189.597214 707.443665,197.079041 
	C710.307617,190.312042 713.069641,184.208008 715.494690,177.972900 
	C721.564819,162.365723 727.431946,146.679611 733.496887,131.070389 
	C734.971008,127.276306 735.773071,124.368019 729.934998,124.866608 
	C729.311218,124.919884 728.581360,123.730965 727.148376,122.441132 
	C735.272888,122.441132 742.428894,122.441132 749.825256,122.441132 
	C749.735168,122.847420 749.713562,123.869598 749.465637,123.927818 
	C743.075256,125.428322 741.772949,131.214355 739.575195,135.987778 
	C729.314148,158.273773 719.261475,180.655685 709.187683,202.885422 
	C705.311890,202.885422 702.001465,202.885422 698.017700,202.885422 
	C696.453857,184.076218 694.889099,165.254944 693.324280,146.433685 
	C693.034058,146.366867 692.743835,146.300049 692.453613,146.233231 
	C687.406372,156.241638 682.347351,166.244156 677.316040,176.260605 
	C674.190491,182.483047 671.189392,188.769272 667.985901,194.950958 
	C662.695435,205.159912 664.848450,203.047729 653.106140,202.655731 
	C652.739258,196.662018 652.177734,190.629074 652.035889,184.586273 
	C651.603760,166.175873 651.317017,147.761917 651.020691,129.348602 
	C650.983582,127.045876 651.014282,124.993233 647.842896,124.876228 
	C647.049194,124.846954 646.288696,123.918915 645.512939,123.403946 
	C645.729553,123.066284 645.946167,122.728622 646.162781,122.390961 
	C654.714172,122.390961 663.265625,122.390961 671.817078,122.390961 
	C671.908813,122.760811 672.000610,123.130661 672.092407,123.500504 
	C670.410095,124.000244 668.726562,124.914078 667.045898,124.908890 
	C664.042236,124.899620 662.985718,125.966988 662.944519,129.009293 
	C662.731323,144.757477 662.292786,160.502441 662.019287,176.250031 
	C661.903687,182.909195 662.000000,189.572067 662.784607,196.577774 
	C665.354187,191.054688 667.923706,185.531601 670.721680,179.694763 
z"/>
<path fill="#F5DF7D" opacity="1.000000" stroke="none" 
	d="
M400.972473,198.828751 
	C399.087189,203.760666 397.957062,204.284851 390.866272,203.606155 
	C394.054962,184.951157 397.238831,166.324463 400.572601,146.820724 
	C397.615173,147.292847 395.534241,147.625061 393.386292,147.967972 
	C393.893250,143.362396 401.808899,141.097595 412.424194,142.564438 
	C411.612152,147.165619 410.908142,151.767029 409.965759,156.319061 
	C409.057007,160.708694 407.902100,165.047379 407.075745,168.490112 
	C412.514404,161.762512 418.279968,154.431854 424.302795,147.318985 
	C425.821655,145.525223 427.982086,143.994965 430.157745,143.085342 
	C439.694122,139.098328 445.841431,143.291977 445.896240,154.089249 
	C445.922363,159.232239 444.849792,164.380814 444.319031,169.131927 
	C447.737610,163.969223 451.068420,158.267441 455.065430,153.078888 
	C459.693756,147.070770 464.986420,141.721344 473.568756,141.974243 
	C479.018188,142.134842 481.677185,144.904190 482.040710,150.427338 
	C483.045593,165.694687 478.907928,180.180252 475.626923,194.807892 
	C475.279999,196.354401 475.125793,197.944138 474.800323,200.041275 
	C477.466461,199.601822 479.583313,199.252899 481.700134,198.903976 
	C477.427521,205.203949 471.257843,203.908432 464.512787,203.840393 
	C465.888092,196.971451 467.328583,190.545975 468.433136,184.063293 
	C469.770020,176.217316 470.994171,168.342407 471.891876,160.437393 
	C472.154816,158.122086 471.505676,155.514008 470.614044,153.306976 
	C469.606018,150.811844 467.966431,149.228729 464.574127,150.748474 
	C457.819244,153.774704 454.673492,159.870377 450.865540,165.498688 
	C444.323822,175.167603 441.161499,186.136780 438.323212,197.269333 
	C436.592438,204.058075 436.010803,204.316086 427.787750,203.661026 
	C429.065155,197.339691 430.567474,191.118423 431.537048,184.815201 
	C432.898834,175.961761 434.163422,167.068695 434.797607,158.144806 
	C434.963501,155.810333 433.176270,152.738281 431.343079,150.998703 
	C428.480591,148.282364 426.404572,151.410126 424.368286,153.156540 
	C423.444580,153.948746 422.543213,154.784134 421.736267,155.692764 
	C410.820557,167.983704 404.275360,182.403000 400.972473,198.828751 
z"/>
<path fill="#F5DF7D" opacity="1.000000" stroke="none" 
	d="
M291.291931,183.354126 
	C293.466980,171.157028 295.407532,159.334991 297.472687,146.753845 
	C294.597351,147.249008 292.618378,147.589828 290.633118,147.931717 
	C290.417786,143.550262 297.350677,141.384689 309.643158,142.378189 
	C307.789398,151.406738 305.960724,160.312973 304.341095,168.201172 
	C309.523804,161.758835 315.165802,154.508804 321.108521,147.514282 
	C322.722656,145.614456 325.057831,144.026031 327.381958,143.083466 
	C336.792847,139.266922 342.719177,143.259048 342.888733,153.812195 
	C342.971405,158.956024 341.885681,164.118622 341.352570,169.053207 
	C344.802979,163.793213 348.021545,157.987579 352.114594,152.883148 
	C356.826904,147.006378 362.128052,141.541504 370.787567,141.960907 
	C375.886383,142.207870 378.665771,144.976532 379.035431,150.144638 
	C380.032043,164.079071 376.580933,177.388763 373.615234,190.776932 
	C372.964417,193.715057 372.320892,196.654785 371.564362,200.091812 
	C374.551575,199.612549 376.648285,199.276154 378.745026,198.939758 
	C374.494690,205.176468 368.368164,203.832458 361.488556,203.981644 
	C362.910065,196.997574 364.404877,190.470764 365.536255,183.881546 
	C366.855865,176.196259 368.053680,168.477417 368.883881,160.728088 
	C369.148651,158.256210 368.493011,155.458817 367.492188,153.141296 
	C366.464539,150.761734 364.780975,149.281464 361.389404,150.821777 
	C354.778259,153.824219 351.608734,159.720459 348.009064,165.264236 
	C341.877716,174.707031 338.031891,185.057510 335.904541,196.146271 
	C334.485016,203.545547 333.348572,204.100815 324.837738,203.885406 
	C325.764496,199.139648 326.835785,194.525772 327.542603,189.856705 
	C329.124817,179.405167 330.778473,168.950897 331.806122,158.439377 
	C332.036743,156.080872 330.497223,152.479706 328.594482,151.193573 
	C323.900696,148.020889 321.390381,152.899902 318.970459,155.509247 
	C308.022125,167.314529 301.877014,181.664612 298.042511,197.106461 
	C296.284149,204.187454 296.239044,204.270981 287.888733,203.723038 
	C288.949554,197.029495 290.003479,190.379333 291.291931,183.354126 
z"/>
<path fill="#F5DF7D" opacity="1.000000" stroke="none" 
	d="
M816.759155,154.738098 
	C820.588684,151.245728 824.012268,147.823013 827.776672,144.828903 
	C832.370667,141.174957 838.012573,140.663651 843.051697,142.866226 
	C848.402832,145.205246 849.097290,150.621307 849.051208,156.118500 
	C848.914856,172.373688 843.063599,186.137833 831.778687,197.754898 
	C823.955444,205.808472 806.982483,207.910736 799.713928,195.407516 
	C797.410828,198.489105 795.086609,201.598938 792.762329,204.708771 
	C792.036987,204.368973 791.311584,204.029175 790.586182,203.689377 
	C795.626526,175.605133 800.666870,147.520889 805.767822,119.098602 
	C803.402649,119.098602 800.955811,119.098602 798.502014,119.098602 
	C798.708069,115.145119 806.188721,113.384377 818.403076,114.354393 
	C814.791321,131.435959 811.200256,148.419281 807.315430,166.792023 
	C811.000671,162.061859 813.752502,158.529816 816.759155,154.738098 
M835.957764,172.158707 
	C836.620544,168.508667 837.731079,164.870392 837.827148,161.205505 
	C837.935364,157.081131 838.356689,151.778915 833.996338,149.984329 
	C831.530701,148.969589 826.836609,150.406631 824.572510,152.377670 
	C814.726562,160.949310 808.505981,172.115372 804.046570,184.264633 
	C802.341003,188.911270 805.352600,196.282196 809.737976,198.929489 
	C815.114441,202.175064 818.617615,201.569275 823.644958,196.880264 
	C830.633911,190.361481 832.517639,181.358536 835.957764,172.158707 
z"/>
<path fill="#F5DF7D" opacity="1.000000" stroke="none" 
	d="
M224.999969,182.069366 
	C225.759766,165.828598 236.192215,146.490479 252.831879,142.771225 
	C265.643738,139.907562 276.636810,142.487335 279.457031,155.593292 
	C280.930450,162.440430 279.796265,170.458939 277.743591,177.321350 
	C274.029755,189.737000 266.573822,200.146942 253.122635,203.140884 
	C241.106476,205.815430 231.612167,204.908936 226.989471,193.408020 
	C225.642548,190.056992 225.626205,186.171143 224.999969,182.069366 
M253.148087,146.333069 
	C251.973541,147.185455 250.627533,147.876511 249.650635,148.914856 
	C238.412949,160.859207 236.005249,175.550888 237.284576,191.078278 
	C237.512100,193.839661 239.969391,197.012543 242.290512,198.892014 
	C248.664597,204.053284 255.579590,199.434967 258.872589,194.263412 
	C266.738953,181.909485 270.813110,168.548843 268.014618,153.686234 
	C266.809692,147.287033 260.188141,143.609360 253.148087,146.333069 
z"/>
<path fill="#F5DF7D" opacity="1.000000" stroke="none" 
	d="
M184.260315,145.331192 
	C178.779327,155.927505 175.622742,166.660339 175.937195,178.395096 
	C176.308243,192.241196 186.815231,202.488190 201.775208,198.096100 
	C206.342682,196.755142 211.059525,195.922958 215.707962,194.857788 
	C215.961456,195.482010 216.214951,196.106216 216.468445,196.730438 
	C211.805435,198.816360 207.303894,202.023056 202.441299,202.723602 
	C195.278015,203.755600 187.810333,203.523712 180.558868,202.869965 
	C172.318497,202.127075 165.160782,193.553497 164.123398,185.338699 
	C161.557251,165.017960 168.342087,147.557800 182.505676,133.161667 
	C192.517960,122.985016 205.261673,119.542923 219.338501,121.045090 
	C223.095825,121.446045 225.875961,122.903046 225.036026,127.621201 
	C224.130905,132.705429 223.520782,137.842194 221.637115,143.367828 
	C221.092407,142.537155 220.245392,141.769852 220.055618,140.864761 
	C219.257690,137.058899 218.702057,133.203049 217.970490,129.382217 
	C217.153580,125.115692 212.859680,123.110367 208.015213,124.435593 
	C196.818314,127.498558 189.744492,135.208160 184.260315,145.331192 
z"/>
<path fill="#F5DF7D" opacity="1.000000" stroke="none" 
	d="
M522.540771,202.785950 
	C514.226257,204.571960 506.150269,205.668701 498.877625,201.192413 
	C492.943115,197.539764 491.833527,190.787994 492.198730,184.728287 
	C493.010223,171.264221 498.371887,159.407593 507.863922,149.655228 
	C514.694885,142.636902 523.347229,140.849197 532.659912,142.067032 
	C540.224243,143.056229 544.188171,154.497162 539.690308,161.747925 
	C535.215210,168.961945 527.980408,171.578400 520.205139,172.932556 
	C515.383606,173.772308 510.447388,173.954163 504.161987,174.568146 
	C504.430298,179.688477 504.010345,185.224091 505.167267,190.407806 
	C506.700012,197.275528 513.599548,200.684982 520.534302,198.686035 
	C524.511475,197.539627 528.297058,195.741058 532.214233,194.365265 
	C533.232056,194.007767 534.420288,194.135269 535.530212,194.039978 
	C534.878418,195.046371 534.457825,196.447327 533.533630,196.988800 
	C530.084106,199.009918 526.469482,200.749252 522.540771,202.785950 
M519.550659,146.911575 
	C510.923981,152.444305 508.870087,161.667480 505.563690,170.904617 
	C515.492310,170.524155 523.661804,168.100220 529.303711,160.146683 
	C531.678833,156.798462 531.658875,150.520187 529.215149,147.764297 
	C526.605286,144.821045 523.566467,144.029510 519.550659,146.911575 
z"/>
<path fill="#F5DF7D" opacity="1.000000" stroke="none" 
	d="
M65.241547,171.415451 
	C70.193336,158.129929 76.903694,146.532562 91.110306,142.657669 
	C99.172905,140.458603 107.245575,141.061005 110.702515,148.198456 
	C113.115311,153.180099 112.109200,159.907990 108.376381,164.165527 
	C101.933266,171.514313 93.121643,172.930695 84.184250,173.947662 
	C81.261803,174.280197 78.269623,173.999939 75.005768,173.999939 
	C75.005768,179.415390 74.377449,184.472412 75.149445,189.305756 
	C76.382515,197.025818 84.214287,201.004028 92.078690,198.405151 
	C96.654785,196.892944 101.117134,195.036514 106.864822,192.869705 
	C105.712311,194.890930 105.331223,196.486176 104.328148,197.172867 
	C95.741486,203.051071 86.190132,205.179108 75.879234,203.995010 
	C69.642731,203.278809 62.873032,195.612869 63.101067,188.724152 
	C63.288563,183.059921 64.363182,177.425049 65.241547,171.415451 
M83.418251,169.999573 
	C90.625900,168.563599 97.374802,166.164749 99.966682,158.470688 
	C100.940750,155.579178 101.142380,151.947739 100.325974,149.038086 
	C98.871323,143.853714 93.354652,143.706650 88.100624,148.383652 
	C81.406517,154.342590 78.419846,162.257339 76.222214,171.183090 
	C78.539497,170.751480 80.556084,170.375870 83.418251,169.999573 
z"/>
<path fill="#F5DF7D" opacity="1.000000" stroke="none" 
	d="
M767.478394,172.801666 
	C761.690796,173.442398 756.300720,173.920166 750.390198,174.444061 
	C748.408142,181.354309 746.959595,189.226883 752.815063,194.995316 
	C762.150330,204.191940 771.421021,196.417694 780.519226,193.010284 
	C780.843811,193.327957 781.168457,193.645615 781.493042,193.963287 
	C780.285583,195.311096 779.291382,196.976700 777.835266,197.953934 
	C769.755432,203.376251 760.738770,204.932739 751.176575,204.005173 
	C745.563354,203.460678 738.676636,197.136627 738.055115,191.392517 
	C736.027588,172.654800 744.666809,154.299973 759.815125,144.965866 
	C766.631531,140.765732 774.544006,139.806503 781.985901,144.495697 
	C786.331360,147.233841 788.057739,153.376022 786.493896,158.071503 
	C783.754150,166.297958 777.213745,169.705719 769.656799,171.992371 
	C769.053223,172.174973 768.469116,172.421722 767.478394,172.801666 
M767.198853,145.287186 
	C757.483948,150.907791 753.842468,160.400009 750.976624,171.022324 
	C753.849365,170.662903 756.766785,170.909103 759.122131,169.875000 
	C763.908569,167.773468 768.959473,165.636520 772.834595,162.281845 
	C776.493408,159.114426 777.097961,154.220520 775.125122,149.253922 
	C773.729919,145.741531 771.404663,144.632706 767.198853,145.287186 
z"/>
<path fill="#F5DF7D" opacity="1.000000" stroke="none" 
	d="
M141.508240,143.395447 
	C148.558289,143.815018 155.676453,143.815018 162.794632,143.815018 
	C162.860947,144.428955 162.927246,145.042877 162.993561,145.656815 
	C155.901352,148.351334 148.023956,146.359451 139.887024,148.752167 
	C138.039047,157.370926 135.781860,166.743103 134.099152,176.217300 
	C133.214111,181.200333 133.131805,186.358597 133.051117,191.443512 
	C132.953018,197.625244 137.402756,200.846848 143.359131,199.286575 
	C146.748886,198.398621 150.165558,197.613434 153.826172,197.402328 
	C150.655533,201.481064 146.248795,203.190002 141.412521,203.953217 
	C139.624710,204.235352 137.713196,203.746307 135.929810,204.041763 
	C126.111313,205.668457 119.680878,198.659760 121.964584,186.161713 
	C124.255196,173.625916 126.721519,161.122208 129.158432,148.355072 
	C126.458176,148.514206 122.987000,148.718781 119.515816,148.923340 
	C119.296310,148.196594 119.076797,147.469849 118.857285,146.743103 
	C120.673332,145.828873 122.610924,143.960480 124.283363,144.173523 
	C130.045242,144.907486 132.447067,142.472717 133.556763,137.079620 
	C134.509888,132.447495 136.515076,128.066040 141.824554,126.646347 
	C143.135178,126.295914 144.506378,126.171989 146.256073,125.874939 
	C144.554291,132.093735 143.065323,137.534805 141.508240,143.395447 
z"/>
<path fill="#F5DF7D" opacity="1.000000" stroke="none" 
	d="
M550.210266,147.965759 
	C547.299561,144.929398 550.625061,144.460617 551.908386,144.155396 
	C556.925354,142.962219 562.050781,142.225281 568.825317,141.017609 
	C567.041626,150.368149 565.511169,158.391296 563.925293,166.705002 
	C567.792419,160.838455 571.289856,155.259781 575.067322,149.877655 
	C578.982483,144.299347 584.344177,141.192215 591.340698,142.113663 
	C592.657043,142.287018 594.956116,144.377426 594.790527,144.805832 
	C594.062256,146.690140 592.938538,149.096695 591.310913,149.786133 
	C589.308960,150.634155 586.593323,149.590134 584.310059,150.020767 
	C577.847717,151.239578 575.026855,156.610245 571.839172,161.535797 
	C564.654724,172.636902 560.845703,185.111023 557.146729,197.615219 
	C555.266113,203.972504 554.315063,204.668991 547.128845,203.471558 
	C550.268127,184.830521 553.407776,166.187515 556.669189,146.821426 
	C553.953796,147.348358 552.292908,147.670670 550.210266,147.965759 
z"/>
<path fill="#F5DF7D" opacity="1.000000" stroke="none" 
	d="
M612.217407,153.284882 
	C603.792542,163.959763 600.160095,175.825699 601.052124,188.978241 
	C601.537170,196.129593 609.878601,200.890503 617.778931,198.619293 
	C622.069824,197.385757 626.222351,195.670868 630.708313,194.076782 
	C630.766357,194.821777 631.182495,195.880051 630.831970,196.303192 
	C624.850769,203.523453 604.035156,206.723907 596.141479,201.591522 
	C588.551636,196.656708 588.059326,188.793259 589.147583,181.155899 
	C591.116699,167.337341 597.349976,155.751312 609.025818,147.355621 
	C615.848145,142.449936 623.381042,141.359192 631.323120,142.083069 
	C636.335083,142.539871 637.486755,146.117294 637.040222,150.643631 
	C636.758240,153.501602 636.959534,156.472900 632.600403,155.936951 
	C632.092468,154.442413 631.693726,152.910446 631.064636,151.479752 
	C628.231323,145.036072 624.367798,143.906326 618.453735,147.945145 
	C616.304443,149.412888 614.453430,151.317276 612.217407,153.284882 
z"/>
<path fill="#000000" opacity="1.000000" stroke="none" 
	d="
M48.281532,156.224792 
	C44.132786,162.817581 34.953075,169.003189 24.818470,166.539337 
	C25.906113,160.297806 26.869188,153.966614 28.144274,147.698898 
	C29.237906,142.323120 30.708916,137.024841 31.975988,131.683487 
	C33.539478,125.092575 37.479282,123.033241 43.955132,125.464020 
	C51.651176,128.352814 55.814499,136.188477 53.418831,144.023590 
	C52.166924,148.117981 50.195938,151.992493 48.281532,156.224792 
z"/>
<path fill="#000000" opacity="1.000000" stroke="none" 
	d="
M835.773926,172.539856 
	C832.517639,181.358536 830.633911,190.361481 823.644958,196.880264 
	C818.617615,201.569275 815.114441,202.175064 809.737976,198.929489 
	C805.352600,196.282196 802.341003,188.911270 804.046570,184.264633 
	C808.505981,172.115372 814.726562,160.949310 824.572510,152.377670 
	C826.836609,150.406631 831.530701,148.969589 833.996338,149.984329 
	C838.356689,151.778915 837.935364,157.081131 837.827148,161.205505 
	C837.731079,164.870392 836.620544,168.508667 835.773926,172.539856 
z"/>
<path fill="#000000" opacity="1.000000" stroke="none" 
	d="
M253.510498,146.174805 
	C260.188141,143.609360 266.809692,147.287033 268.014618,153.686234 
	C270.813110,168.548843 266.738953,181.909485 258.872589,194.263412 
	C255.579590,199.434967 248.664597,204.053284 242.290512,198.892014 
	C239.969391,197.012543 237.512100,193.839661 237.284576,191.078278 
	C236.005249,175.550888 238.412949,160.859207 249.650635,148.914856 
	C250.627533,147.876511 251.973541,147.185455 253.510498,146.174805 
z"/>
<path fill="#000000" opacity="1.000000" stroke="none" 
	d="
M519.826599,146.646500 
	C523.566467,144.029510 526.605286,144.821045 529.215149,147.764297 
	C531.658875,150.520187 531.678833,156.798462 529.303711,160.146683 
	C523.661804,168.100220 515.492310,170.524155 505.563690,170.904617 
	C508.870087,161.667480 510.923981,152.444305 519.826599,146.646500 
z"/>
<path fill="#000000" opacity="1.000000" stroke="none" 
	d="
M82.995461,169.999908 
	C80.556084,170.375870 78.539497,170.751480 76.222214,171.183090 
	C78.419846,162.257339 81.406517,154.342590 88.100624,148.383652 
	C93.354652,143.706650 98.871323,143.853714 100.325974,149.038086 
	C101.142380,151.947739 100.940750,155.579178 99.966682,158.470688 
	C97.374802,166.164749 90.625900,168.563599 82.995461,169.999908 
z"/>
<path fill="#000000" opacity="1.000000" stroke="none" 
	d="
M767.574707,145.158600 
	C771.404663,144.632706 773.729919,145.741531 775.125122,149.253922 
	C777.097961,154.220520 776.493408,159.114426 772.834595,162.281845 
	C768.959473,165.636520 763.908569,167.773468 759.122131,169.875000 
	C756.766785,170.909103 753.849365,170.662903 750.976624,171.022324 
	C753.842468,160.400009 757.483948,150.907791 767.574707,145.158600 
z"/>
</svg>